<?xml version="1.0" encoding="UTF-8"?>
<svg id="Layer_1" xmlns="http://www.w3.org/2000/svg" version="1.1" viewBox="0 0 455.78 71.42">
  <!-- Generator: Adobe Illustrator 29.4.0, SVG Export Plug-In . SVG Version: 2.1.0 Build 152)  -->
  <defs>
    <style>
      .st0 {
        fill: #4285f4;
      }

      .st1 {
        fill: #172b85;
      }

      .st1, .st2, .st3, .st4, .st5, .st6, .st7, .st8, .st9 {
        fill-rule: evenodd;
      }

      .st2 {
        fill: #3c4043;
      }

      .st10 {
        fill: #34a853;
      }

      .st11 {
        fill: #fbbc04;
      }

      .st12 {
        fill: #fff;
      }

      .st13 {
        fill: #ea4335;
      }

      .st4, .st14 {
        fill: #253b80;
      }

      .st5 {
        fill: #f9a000;
      }

      .st15, .st6 {
        fill: #179bd7;
      }

      .st7 {
        fill: #ed0006;
      }

      .st8 {
        fill: #ff5e00;
      }

      .st9 {
        fill: #6461fc;
      }

      .st16 {
        fill: #222d65;
      }
    </style>
  </defs>
  <g>
    <rect class="st12" x="237.47" y="16.74" width="55.7" height="37.94" rx="14.55" ry="14.55"/>
    <path class="st9" d="M267.42,29.48l-2.87.62v-2.33l2.87-.6v2.32ZM255.76,28.49l-2.79.59v9.14c-.01,1.69,1.26,2.93,2.95,2.93.94,0,1.62-.17,2-.38v-2.32c-.37.15-2.17.67-2.17-1.02v-4.05h2.17v-2.43h-2.17v-2.48ZM249,33.24c-.61,0-.97.17-.97.62,0,.49.63.7,1.41.96,1.27.43,2.95,1,2.96,3.11,0,2.04-1.64,3.22-4.01,3.22-.98,0-2.06-.19-3.12-.65v-2.72c.96.52,2.17.91,3.12.91.64,0,1.1-.17,1.1-.7s-.68-.78-1.51-1.08c-1.26-.45-2.84-1.02-2.84-2.92,0-2.02,1.54-3.23,3.87-3.23.95,0,1.89.15,2.84.52v2.68c-.87-.47-1.97-.73-2.84-.73ZM261.48,31.81l-.18-.84h-2.47v9.98h2.86v-6.77c.67-.88,1.82-.72,2.17-.59v-2.62c-.37-.14-1.7-.39-2.38.84ZM264.55,30.96h2.87v9.98h-2.87v-9.98ZM286.31,35.99c0-2.92-1.42-5.23-4.13-5.23s-4.37,2.3-4.37,5.2c0,3.43,1.94,5.17,4.73,5.17,1.36,0,2.39-.31,3.17-.74v-2.28c-.78.39-1.67.63-2.8.63s-2.09-.39-2.22-1.73h5.59c0-.06,0-.21,0-.37h0c0-.22.01-.49.01-.65ZM280.66,34.91c0-1.29.79-1.83,1.51-1.83s1.44.54,1.44,1.83h-2.95ZM271.15,31.66c.4-.36,1.12-.89,2.24-.89,2,0,3.89,1.8,3.9,5.11,0,3.62-1.86,5.26-3.91,5.26-1.01,0-1.61-.42-2.02-.72v3.23s-2.87.6-2.87.6v-13.3h2.52l.15.71ZM271.36,38.09c.27.3.67.54,1.35.54,1.05,0,1.76-1.14,1.76-2.67s-.72-2.66-1.76-2.66c-.65,0-1.06.23-1.36.56v4.23Z"/>
  </g>
  <g>
    <rect class="st12" x="312.33" y="16.74" width="55.7" height="37.94" rx="14.55" ry="14.55"/>
    <path class="st1" d="M329.08,42.58h-3.42l-2.57-9.79c-.12-.45-.38-.85-.76-1.04-.95-.47-2-.85-3.14-1.04v-.38h5.52c.76,0,1.33.57,1.42,1.22l1.33,7.06,3.42-8.29h3.33l-5.13,12.24ZM336.11,42.58h-3.23l2.66-12.24h3.23l-2.66,12.24ZM342.96,33.73c.1-.66.67-1.04,1.33-1.04,1.05-.09,2.19.09,3.14.56l.57-2.64c-.95-.38-2-.57-2.95-.57-3.14,0-5.42,1.7-5.42,4.05,0,1.79,1.62,2.73,2.76,3.3,1.24.56,1.71.94,1.61,1.51,0,.85-.95,1.22-1.9,1.22-1.14,0-2.28-.28-3.33-.75l-.57,2.64c1.14.47,2.38.66,3.52.66,3.52.09,5.7-1.6,5.7-4.14,0-3.2-4.47-3.39-4.47-4.8ZM358.75,42.58l-2.57-12.24h-2.76c-.57,0-1.14.38-1.33.94l-4.75,11.3h3.33l.67-1.79h4.09l.38,1.79h2.95ZM353.9,33.64l.95,4.61h-2.66l1.71-4.61Z"/>
  </g>
  <g>
    <rect class="st12" x="162.61" y="16.74" width="55.7" height="37.94" rx="14.55" ry="14.55"/>
    <path class="st4" d="M178.19,40.94h-2.51c-.17,0-.32.12-.34.29l-1.02,6.44c-.02.13.08.24.21.24h1.2c.17,0,.32-.12.35-.29l.27-1.74c.03-.17.17-.29.34-.29h.8c1.65,0,2.61-.8,2.86-2.39.11-.69,0-1.24-.32-1.62-.36-.42-.99-.64-1.83-.64ZM178.48,43.29c-.14.9-.83.9-1.49.9h-.38l.27-1.68c.02-.1.1-.18.2-.18h.17c.45,0,.88,0,1.1.26.13.15.17.38.12.7ZM185.69,43.26h-1.2c-.1,0-.19.08-.21.18l-.05.34-.09-.12c-.26-.38-.84-.5-1.42-.5-1.33,0-2.47,1.01-2.69,2.42-.12.7.05,1.38.45,1.85.37.43.89.61,1.51.61,1.07,0,1.67-.69,1.67-.69l-.05.33c-.02.13.08.24.21.24h1.08c.17,0,.32-.13.34-.3l.65-4.12c.02-.13-.08-.24-.21-.24ZM184.02,45.6c-.12.69-.66,1.15-1.36,1.15-.35,0-.63-.11-.81-.32-.18-.21-.25-.51-.19-.84.11-.68.66-1.16,1.35-1.16.34,0,.62.11.8.33.18.22.26.52.2.85ZM190.89,43.26h1.21c.17,0,.27.19.17.33l-4.02,5.8c-.07.09-.17.15-.29.15h-1.21c-.17,0-.27-.19-.17-.33l1.25-1.77-1.33-3.91c-.05-.14.05-.28.2-.28h1.19c.16,0,.29.1.34.25l.71,2.36,1.67-2.46c.06-.1.17-.15.29-.15Z"/>
    <path class="st6" d="M204,47.68l1.03-6.56c.02-.1.1-.18.2-.18h1.16c.13,0,.23.11.2.24l-1.02,6.44c-.03.17-.17.29-.34.29h-1.04c-.13,0-.23-.11-.2-.24ZM196.1,40.94h-2.51c-.17,0-.32.12-.34.29l-1.02,6.44c-.02.13.08.24.21.24h1.29c.12,0,.22-.09.24-.21l.29-1.83c.03-.17.17-.29.34-.29h.79c1.66,0,2.61-.8,2.86-2.39.11-.69,0-1.24-.32-1.62-.36-.42-.99-.64-1.83-.64ZM196.39,43.29c-.14.9-.82.9-1.49.9h-.38l.27-1.68c.02-.1.1-.18.2-.18h.17c.45,0,.88,0,1.1.26.13.15.17.38.12.7ZM203.61,43.26h-1.2c-.1,0-.19.07-.21.18l-.05.34-.09-.12c-.26-.38-.84-.5-1.42-.5-1.33,0-2.47,1.01-2.69,2.42-.12.7.05,1.38.45,1.85.37.43.89.61,1.52.61,1.07,0,1.67-.69,1.67-.69l-.05.33c-.02.13.08.24.21.24h1.08c.17,0,.32-.12.34-.29l.65-4.12c.02-.13-.08-.24-.21-.24ZM201.93,45.6c-.11.69-.66,1.15-1.35,1.15-.35,0-.63-.11-.81-.32-.18-.21-.24-.51-.19-.84.11-.68.66-1.16,1.35-1.16.34,0,.62.11.8.33.18.22.26.52.2.85Z"/>
    <path class="st14" d="M187.48,38.64l.31-1.96-.69-.02h-3.28l2.28-14.47s.03-.08.06-.11c.04-.03.08-.04.12-.04h5.54c1.84,0,3.11.38,3.77,1.14.31.35.51.72.6,1.13.1.43.1.94,0,1.56v.05s0,.4,0,.4l.31.18c.26.14.47.3.63.48.27.3.44.69.51,1.14.08.47.05,1.03-.07,1.66-.14.73-.37,1.36-.68,1.88-.28.48-.65.87-1.08,1.18-.41.29-.9.51-1.45.65-.53.14-1.14.21-1.81.21h-.43c-.31,0-.61.11-.84.31-.24.2-.39.48-.44.78l-.03.18-.55,3.46-.02.13s-.02.06-.03.07c-.02.01-.04.02-.06.02h-2.66Z"/>
    <path class="st15" d="M196.8,25.95c-.02.11-.04.21-.05.32-.73,3.75-3.23,5.05-6.42,5.05h-1.62c-.39,0-.72.28-.78.67l-.83,5.28-.24,1.5c-.04.25.16.48.41.48h2.88c.34,0,.63-.25.69-.58l.03-.15.54-3.44.03-.19c.05-.34.34-.59.69-.59h.43c2.79,0,4.98-1.13,5.62-4.41.27-1.37.13-2.51-.58-3.32-.21-.24-.48-.44-.79-.61Z"/>
    <path class="st16" d="M196.04,25.65c-.11-.03-.23-.06-.34-.09-.12-.03-.24-.05-.37-.07-.44-.07-.92-.1-1.43-.1h-4.34c-.11,0-.21.02-.3.07-.2.1-.35.29-.39.52l-.92,5.85-.03.17c.06-.38.39-.67.78-.67h1.62c3.19,0,5.69-1.3,6.42-5.05.02-.11.04-.22.06-.32-.19-.1-.38-.18-.6-.25-.05-.02-.11-.04-.16-.05Z"/>
    <path class="st14" d="M188.87,25.97c.04-.23.19-.42.39-.52.09-.04.19-.07.3-.07h4.34c.52,0,.99.03,1.43.1.13.02.25.04.37.07.12.03.23.06.34.09.05.02.11.03.16.05.22.07.42.16.6.25.22-1.39,0-2.33-.75-3.18-.83-.94-2.32-1.34-4.22-1.34h-5.54c-.39,0-.72.28-.78.67l-2.31,14.62c-.05.29.18.55.47.55h3.42l.86-5.45.92-5.85Z"/>
  </g>
  <g>
    <rect class="st12" x="87.75" y="16.74" width="55.7" height="37.94" rx="14.55" ry="14.55"/>
    <path class="st2" d="M114.03,41.78v-4.88h2.52c1.03,0,1.9-.35,2.61-1.03l.17-.17c1.3-1.41,1.21-3.61-.17-4.92-.69-.69-1.64-1.07-2.61-1.05h-4.04v12.04h1.52ZM114.03,35.42v-4.21h2.56c.55,0,1.07.21,1.46.6.82.81.84,2.15.05,2.99-.39.41-.94.64-1.5.62h-2.56ZM126.44,34.18c-.65-.61-1.54-.91-2.67-.91-1.45,0-2.54.54-3.26,1.6l1.34.85c.49-.73,1.17-1.09,2.02-1.09.54,0,1.06.2,1.47.57.4.35.63.84.63,1.37v.36c-.59-.33-1.33-.5-2.24-.5-1.06,0-1.91.25-2.54.76-.63.51-.96,1.18-.96,2.04-.02.78.31,1.52.9,2.02.59.54,1.35.81,2.24.81,1.05,0,1.88-.47,2.52-1.41h.06v1.14h1.46v-5.08c0-1.07-.32-1.91-.97-2.52ZM122.31,40.26c-.31-.23-.5-.6-.5-1.01,0-.45.21-.83.61-1.12.42-.3.94-.45,1.55-.45.85,0,1.52.18,1.99.57,0,.65-.26,1.22-.76,1.7-.45.46-1.07.72-1.71.72-.43,0-.84-.13-1.18-.4ZM130.69,45.4l5.09-11.86h-1.66l-2.36,5.91h-.03l-2.41-5.91h-1.66l3.34,7.71-1.89,4.15h1.57Z"/>
    <path class="st0" d="M108.77,35.84c0-.47-.04-.94-.11-1.4h-6.43v2.66h3.68c-.15.85-.64,1.62-1.36,2.1v1.73h2.19c1.29-1.2,2.03-2.98,2.03-5.09Z"/>
    <path class="st10" d="M102.23,42.6c1.84,0,3.39-.61,4.51-1.67l-2.19-1.73c-.62.42-1.4.66-2.32.66-1.78,0-3.28-1.22-3.82-2.85h-2.26v1.79c1.15,2.33,3.51,3.8,6.08,3.8Z"/>
    <path class="st11" d="M98.41,37.01c-.28-.85-.28-1.79,0-2.65v-1.78h-2.26c-.97,1.95-.97,4.25,0,6.2l2.26-1.78Z"/>
    <path class="st13" d="M102.23,31.51c.97-.02,1.91.36,2.61,1.04l1.95-1.98c-1.24-1.17-2.87-1.81-4.56-1.8-2.58,0-4.93,1.48-6.08,3.81l2.26,1.79c.54-1.64,2.04-2.86,3.82-2.86Z"/>
  </g>
  <g>
    <rect class="st12" x="387.18" y="16.74" width="55.7" height="37.94" rx="14.55" ry="14.55"/>
    <path class="st7" d="M415.44,44.03c-1.92,1.66-4.42,2.66-7.15,2.66-6.08,0-11.02-4.99-11.02-11.15s4.93-11.15,11.02-11.15c2.73,0,5.22,1,7.15,2.66,1.92-1.66,4.42-2.66,7.15-2.66,6.08,0,11.02,4.99,11.02,11.15s-4.93,11.15-11.02,11.15c-2.73,0-5.22-1-7.15-2.66Z"/>
    <path class="st5" d="M415.44,44.03c2.37-2.04,3.87-5.09,3.87-8.48s-1.5-6.44-3.87-8.48c1.92-1.66,4.42-2.66,7.15-2.66,6.08,0,11.02,4.99,11.02,11.15s-4.93,11.15-11.02,11.15c-2.73,0-5.22-1-7.15-2.66Z"/>
    <path class="st8" d="M415.44,44.03c2.37-2.04,3.87-5.09,3.87-8.48s-1.5-6.44-3.87-8.48c-2.37,2.04-3.87,5.09-3.87,8.48s1.5,6.44,3.87,8.48Z"/>
  </g>
  <g>
    <rect class="st12" x="12.89" y="16.74" width="55.7" height="37.94" rx="14.55" ry="14.55"/>
    <path class="st3" d="M25.96,30.76c.76.06,1.52-.38,1.99-.95.47-.58.77-1.37.7-2.17-.67.03-1.5.45-1.98,1.03-.43.5-.81,1.32-.71,2.09ZM34.99,41.06v-12.48h4.62c2.39,0,4.06,1.66,4.06,4.1s-1.7,4.11-4.12,4.11h-2.65v4.27h-1.91ZM28.64,30.91c-.67-.04-1.28.2-1.77.4-.32.13-.59.23-.79.23-.23,0-.51-.11-.82-.24-.41-.17-.88-.35-1.37-.35-1.13.02-2.18.66-2.76,1.7-1.19,2.06-.31,5.12.84,6.8.56.83,1.23,1.74,2.12,1.71.39-.01.67-.14.96-.26.33-.14.68-.29,1.22-.29s.85.15,1.17.28c.3.13.59.26,1.02.25.92-.02,1.49-.83,2.06-1.66.61-.89.87-1.77.91-1.9,0,0,0-.01,0-.02,0,0,0,0-.02-.01h0c-.2-.09-1.75-.81-1.76-2.73-.01-1.61,1.23-2.43,1.42-2.56h0s.02-.01.02-.02c-.79-1.18-2.02-1.31-2.45-1.34ZM47.16,41.16c1.2,0,2.32-.62,2.82-1.59h.04v1.5h1.77v-6.21c0-1.8-1.42-2.96-3.61-2.96-2.03,0-3.53,1.18-3.59,2.79h1.72c.14-.77.85-1.27,1.81-1.27,1.17,0,1.83.55,1.83,1.57v.69l-2.39.14c-2.22.14-3.42,1.06-3.42,2.66s1.24,2.69,3.02,2.69ZM47.68,39.68c-1.02,0-1.67-.5-1.67-1.26s.62-1.24,1.82-1.31l2.13-.14v.7c0,1.17-.98,2-2.28,2ZM57.67,41.55c-.77,2.18-1.64,2.91-3.51,2.91-.14,0-.62-.02-.73-.05v-1.5c.12.02.41.03.56.03.85,0,1.32-.36,1.61-1.3l.17-.55-3.24-9.08h2l2.25,7.37h.04l2.25-7.37h1.94l-3.36,9.54ZM36.9,30.22h2.21c1.66,0,2.61.9,2.61,2.47s-.95,2.48-2.62,2.48h-2.2v-4.95Z"/>
  </g>
</svg>